<mxfile host="app.diagrams.net" agent="Mozilla/5.0 (Windows NT 10.0; Win64; x64) AppleWebKit/537.36 (KHTML, like Gecko) Chrome/131.0.0.0 Safari/537.36" version="25.0.1">
  <diagram name="Страница — 1" id="39mdRWEwGkrcfIrTXr_9">
    <mxGraphModel dx="1517" dy="790" grid="1" gridSize="10" guides="1" tooltips="1" connect="1" arrows="1" fold="1" page="1" pageScale="1" pageWidth="1600" pageHeight="900" math="0" shadow="0">
      <root>
        <mxCell id="0" />
        <mxCell id="1" parent="0" />
        <mxCell id="DFlKvA6O-jdNiN_HPqZQ-11" style="edgeStyle=orthogonalEdgeStyle;rounded=0;orthogonalLoop=1;jettySize=auto;html=1;entryX=0.001;entryY=0.707;entryDx=0;entryDy=0;entryPerimeter=0;" edge="1" parent="1" source="DFlKvA6O-jdNiN_HPqZQ-1" target="DFlKvA6O-jdNiN_HPqZQ-5">
          <mxGeometry relative="1" as="geometry">
            <Array as="points">
              <mxPoint x="120" y="250" />
              <mxPoint x="150" y="250" />
            </Array>
          </mxGeometry>
        </mxCell>
        <mxCell id="DFlKvA6O-jdNiN_HPqZQ-12" style="edgeStyle=orthogonalEdgeStyle;rounded=0;orthogonalLoop=1;jettySize=auto;html=1;entryX=0;entryY=0.75;entryDx=0;entryDy=0;" edge="1" parent="1" source="DFlKvA6O-jdNiN_HPqZQ-1" target="DFlKvA6O-jdNiN_HPqZQ-7">
          <mxGeometry relative="1" as="geometry">
            <Array as="points">
              <mxPoint x="120" y="650" />
              <mxPoint x="1050" y="650" />
              <mxPoint x="1050" y="480" />
            </Array>
          </mxGeometry>
        </mxCell>
        <mxCell id="DFlKvA6O-jdNiN_HPqZQ-1" value="&lt;font style=&quot;font-size: 20px;&quot;&gt;Специфікація вимог&lt;/font&gt;" style="text;html=1;align=center;verticalAlign=middle;resizable=0;points=[];autosize=1;strokeColor=none;fillColor=none;" vertex="1" parent="1">
          <mxGeometry y="690" width="210" height="40" as="geometry" />
        </mxCell>
        <mxCell id="DFlKvA6O-jdNiN_HPqZQ-18" style="edgeStyle=orthogonalEdgeStyle;rounded=0;orthogonalLoop=1;jettySize=auto;html=1;entryX=0.306;entryY=0.013;entryDx=0;entryDy=0;entryPerimeter=0;" edge="1" parent="1" source="DFlKvA6O-jdNiN_HPqZQ-3" target="DFlKvA6O-jdNiN_HPqZQ-5">
          <mxGeometry relative="1" as="geometry">
            <mxPoint x="350" y="110" as="targetPoint" />
            <Array as="points">
              <mxPoint x="815" y="70" />
              <mxPoint x="250" y="70" />
              <mxPoint x="250" y="181" />
            </Array>
          </mxGeometry>
        </mxCell>
        <mxCell id="DFlKvA6O-jdNiN_HPqZQ-20" style="edgeStyle=orthogonalEdgeStyle;rounded=0;orthogonalLoop=1;jettySize=auto;html=1;entryX=0.25;entryY=0;entryDx=0;entryDy=0;" edge="1" parent="1" source="DFlKvA6O-jdNiN_HPqZQ-3" target="DFlKvA6O-jdNiN_HPqZQ-7">
          <mxGeometry relative="1" as="geometry">
            <mxPoint x="1170" y="330" as="targetPoint" />
            <Array as="points">
              <mxPoint x="815" y="160" />
              <mxPoint x="1144" y="160" />
            </Array>
          </mxGeometry>
        </mxCell>
        <mxCell id="DFlKvA6O-jdNiN_HPqZQ-24" style="edgeStyle=orthogonalEdgeStyle;rounded=0;orthogonalLoop=1;jettySize=auto;html=1;entryX=0.518;entryY=0.008;entryDx=0;entryDy=0;entryPerimeter=0;" edge="1" parent="1" source="DFlKvA6O-jdNiN_HPqZQ-3" target="DFlKvA6O-jdNiN_HPqZQ-6">
          <mxGeometry relative="1" as="geometry">
            <Array as="points" />
          </mxGeometry>
        </mxCell>
        <mxCell id="DFlKvA6O-jdNiN_HPqZQ-3" value="&lt;font style=&quot;font-size: 20px;&quot;&gt;Графік виконання&lt;/font&gt;" style="text;html=1;align=center;verticalAlign=middle;resizable=0;points=[];autosize=1;strokeColor=none;fillColor=none;" vertex="1" parent="1">
          <mxGeometry x="720" width="190" height="40" as="geometry" />
        </mxCell>
        <mxCell id="DFlKvA6O-jdNiN_HPqZQ-5" value="&lt;font style=&quot;font-size: 25px;&quot;&gt;Розробка коду&lt;br&gt;&lt;/font&gt;&lt;div&gt;&lt;div style=&quot;text-align: left;&quot;&gt;&lt;font style=&quot;font-size: 25px;&quot;&gt;&lt;br&gt;&lt;/font&gt;&lt;/div&gt;&lt;div style=&quot;text-align: left;&quot;&gt;&lt;span style=&quot;background-color: initial;&quot;&gt;&lt;font style=&quot;font-size: 25px;&quot;&gt;&amp;nbsp; &amp;nbsp; &amp;nbsp; &amp;nbsp; &amp;nbsp; &amp;nbsp; &amp;nbsp; &amp;nbsp; &amp;nbsp; &amp;nbsp; &amp;nbsp; &amp;nbsp; &amp;nbsp; &amp;nbsp; &amp;nbsp; &amp;nbsp; &amp;nbsp; &amp;nbsp; &amp;nbsp; &amp;nbsp;&lt;/font&gt;&lt;font style=&quot;font-size: 15px;&quot;&gt; 2.1&lt;/font&gt;&lt;/span&gt;&lt;/div&gt;&lt;/div&gt;" style="rounded=0;whiteSpace=wrap;html=1;" vertex="1" parent="1">
          <mxGeometry x="150" y="180" width="330" height="100" as="geometry" />
        </mxCell>
        <mxCell id="DFlKvA6O-jdNiN_HPqZQ-6" value="&lt;font style=&quot;font-size: 25px;&quot;&gt;&lt;font style=&quot;&quot;&gt;Тестування&amp;nbsp;&lt;/font&gt;коду&lt;/font&gt;&lt;div&gt;&lt;div style=&quot;text-align: left;&quot;&gt;&lt;font style=&quot;font-size: 25px;&quot;&gt;&lt;br&gt;&lt;/font&gt;&lt;/div&gt;&lt;div style=&quot;text-align: left;&quot;&gt;&lt;span style=&quot;background-color: initial;&quot;&gt;&lt;font style=&quot;font-size: 25px;&quot;&gt;&amp;nbsp; &amp;nbsp; &amp;nbsp; &amp;nbsp; &amp;nbsp; &amp;nbsp; &amp;nbsp; &amp;nbsp; &amp;nbsp; &amp;nbsp; &amp;nbsp; &amp;nbsp; &amp;nbsp; &amp;nbsp; &amp;nbsp; &lt;/font&gt;&lt;font style=&quot;font-size: 15px;&quot;&gt;2.2&lt;/font&gt;&lt;/span&gt;&lt;/div&gt;&lt;/div&gt;" style="rounded=0;whiteSpace=wrap;html=1;" vertex="1" parent="1">
          <mxGeometry x="680" y="280" width="260" height="100" as="geometry" />
        </mxCell>
        <mxCell id="DFlKvA6O-jdNiN_HPqZQ-7" value="&lt;font style=&quot;font-size: 25px;&quot;&gt;Інтеграція компонентів&lt;/font&gt;&lt;div&gt;&lt;div style=&quot;text-align: left;&quot;&gt;&lt;font style=&quot;font-size: 25px;&quot;&gt;&lt;br&gt;&lt;/font&gt;&lt;/div&gt;&lt;div style=&quot;text-align: left;&quot;&gt;&lt;span style=&quot;background-color: initial;&quot;&gt;&lt;font style=&quot;font-size: 25px;&quot;&gt;&amp;nbsp; &amp;nbsp; &amp;nbsp; &amp;nbsp; &amp;nbsp; &amp;nbsp; &amp;nbsp; &amp;nbsp; &amp;nbsp; &amp;nbsp; &amp;nbsp; &lt;/font&gt;&lt;font style=&quot;font-size: 15px;&quot;&gt;2.1&lt;/font&gt;&lt;/span&gt;&lt;/div&gt;&lt;/div&gt;" style="rounded=0;whiteSpace=wrap;html=1;" vertex="1" parent="1">
          <mxGeometry x="1095" y="390" width="195" height="120" as="geometry" />
        </mxCell>
        <mxCell id="DFlKvA6O-jdNiN_HPqZQ-9" value="" style="edgeStyle=orthogonalEdgeStyle;rounded=0;orthogonalLoop=1;jettySize=auto;html=1;" edge="1" parent="1" source="DFlKvA6O-jdNiN_HPqZQ-8" target="DFlKvA6O-jdNiN_HPqZQ-5">
          <mxGeometry relative="1" as="geometry">
            <Array as="points">
              <mxPoint x="120" y="220" />
            </Array>
          </mxGeometry>
        </mxCell>
        <mxCell id="DFlKvA6O-jdNiN_HPqZQ-8" value="&lt;font style=&quot;font-size: 20px;&quot;&gt;Архітектурний проєкт&lt;/font&gt;" style="text;html=1;align=center;verticalAlign=middle;resizable=0;points=[];autosize=1;strokeColor=none;fillColor=none;" vertex="1" parent="1">
          <mxGeometry y="80" width="220" height="40" as="geometry" />
        </mxCell>
        <mxCell id="DFlKvA6O-jdNiN_HPqZQ-23" style="edgeStyle=orthogonalEdgeStyle;rounded=0;orthogonalLoop=1;jettySize=auto;html=1;entryX=0.75;entryY=0;entryDx=0;entryDy=0;" edge="1" parent="1" source="DFlKvA6O-jdNiN_HPqZQ-21" target="DFlKvA6O-jdNiN_HPqZQ-7">
          <mxGeometry relative="1" as="geometry">
            <Array as="points">
              <mxPoint x="1100" y="120" />
              <mxPoint x="1241" y="120" />
            </Array>
          </mxGeometry>
        </mxCell>
        <mxCell id="DFlKvA6O-jdNiN_HPqZQ-42" style="edgeStyle=orthogonalEdgeStyle;rounded=0;orthogonalLoop=1;jettySize=auto;html=1;entryX=0.75;entryY=0;entryDx=0;entryDy=0;" edge="1" parent="1" source="DFlKvA6O-jdNiN_HPqZQ-21" target="DFlKvA6O-jdNiN_HPqZQ-5">
          <mxGeometry relative="1" as="geometry">
            <Array as="points">
              <mxPoint x="1100" y="100" />
              <mxPoint x="398" y="100" />
            </Array>
          </mxGeometry>
        </mxCell>
        <mxCell id="DFlKvA6O-jdNiN_HPqZQ-21" value="&lt;font style=&quot;font-size: 20px;&quot;&gt;Стандарти розробки&lt;/font&gt;" style="text;html=1;align=center;verticalAlign=middle;resizable=0;points=[];autosize=1;strokeColor=none;fillColor=none;" vertex="1" parent="1">
          <mxGeometry x="1000" width="210" height="40" as="geometry" />
        </mxCell>
        <mxCell id="DFlKvA6O-jdNiN_HPqZQ-27" style="edgeStyle=orthogonalEdgeStyle;rounded=0;orthogonalLoop=1;jettySize=auto;html=1;" edge="1" parent="1" source="DFlKvA6O-jdNiN_HPqZQ-25">
          <mxGeometry relative="1" as="geometry">
            <mxPoint x="880" y="380" as="targetPoint" />
            <Array as="points">
              <mxPoint x="1440" y="680" />
              <mxPoint x="880" y="680" />
            </Array>
          </mxGeometry>
        </mxCell>
        <mxCell id="DFlKvA6O-jdNiN_HPqZQ-28" style="edgeStyle=orthogonalEdgeStyle;rounded=0;orthogonalLoop=1;jettySize=auto;html=1;" edge="1" parent="1" source="DFlKvA6O-jdNiN_HPqZQ-25">
          <mxGeometry relative="1" as="geometry">
            <mxPoint x="440" y="280" as="targetPoint" />
            <Array as="points">
              <mxPoint x="1440" y="600" />
              <mxPoint x="440" y="600" />
            </Array>
          </mxGeometry>
        </mxCell>
        <mxCell id="DFlKvA6O-jdNiN_HPqZQ-25" value="&lt;font style=&quot;font-size: 20px;&quot;&gt;Програмні забезпечення&lt;/font&gt;" style="text;html=1;align=center;verticalAlign=middle;resizable=0;points=[];autosize=1;strokeColor=none;fillColor=none;" vertex="1" parent="1">
          <mxGeometry x="1325" y="860" width="250" height="40" as="geometry" />
        </mxCell>
        <mxCell id="DFlKvA6O-jdNiN_HPqZQ-26" style="edgeStyle=orthogonalEdgeStyle;rounded=0;orthogonalLoop=1;jettySize=auto;html=1;entryX=0.75;entryY=1;entryDx=0;entryDy=0;" edge="1" parent="1" source="DFlKvA6O-jdNiN_HPqZQ-25" target="DFlKvA6O-jdNiN_HPqZQ-7">
          <mxGeometry relative="1" as="geometry">
            <mxPoint x="1475" y="512" as="targetPoint" />
            <Array as="points">
              <mxPoint x="1440" y="560" />
              <mxPoint x="1241" y="560" />
            </Array>
          </mxGeometry>
        </mxCell>
        <mxCell id="DFlKvA6O-jdNiN_HPqZQ-30" style="edgeStyle=orthogonalEdgeStyle;rounded=0;orthogonalLoop=1;jettySize=auto;html=1;entryX=0.422;entryY=0.974;entryDx=0;entryDy=0;entryPerimeter=0;" edge="1" parent="1" source="DFlKvA6O-jdNiN_HPqZQ-29" target="DFlKvA6O-jdNiN_HPqZQ-5">
          <mxGeometry relative="1" as="geometry">
            <mxPoint x="360" y="280" as="targetPoint" />
            <Array as="points" />
          </mxGeometry>
        </mxCell>
        <mxCell id="DFlKvA6O-jdNiN_HPqZQ-47" style="edgeStyle=orthogonalEdgeStyle;rounded=0;orthogonalLoop=1;jettySize=auto;html=1;entryX=0.5;entryY=1;entryDx=0;entryDy=0;" edge="1" parent="1" source="DFlKvA6O-jdNiN_HPqZQ-29" target="DFlKvA6O-jdNiN_HPqZQ-6">
          <mxGeometry relative="1" as="geometry">
            <Array as="points">
              <mxPoint x="290" y="520" />
              <mxPoint x="810" y="520" />
            </Array>
          </mxGeometry>
        </mxCell>
        <mxCell id="DFlKvA6O-jdNiN_HPqZQ-29" value="&lt;font style=&quot;font-size: 20px;&quot;&gt;Програмісти&lt;/font&gt;" style="text;whiteSpace=wrap;html=1;" vertex="1" parent="1">
          <mxGeometry x="240" y="860" width="100" height="40" as="geometry" />
        </mxCell>
        <mxCell id="DFlKvA6O-jdNiN_HPqZQ-32" style="edgeStyle=orthogonalEdgeStyle;rounded=0;orthogonalLoop=1;jettySize=auto;html=1;" edge="1" parent="1" source="DFlKvA6O-jdNiN_HPqZQ-31">
          <mxGeometry relative="1" as="geometry">
            <mxPoint x="730" y="380" as="targetPoint" />
          </mxGeometry>
        </mxCell>
        <mxCell id="DFlKvA6O-jdNiN_HPqZQ-31" value="&lt;font style=&quot;font-size: 20px;&quot;&gt;Тестувальники&lt;/font&gt;" style="text;whiteSpace=wrap;html=1;" vertex="1" parent="1">
          <mxGeometry x="670" y="860" width="120" height="40" as="geometry" />
        </mxCell>
        <mxCell id="DFlKvA6O-jdNiN_HPqZQ-33" value="&lt;font style=&quot;font-size: 20px;&quot;&gt;Інженери&lt;/font&gt;" style="text;whiteSpace=wrap;html=1;" vertex="1" parent="1">
          <mxGeometry x="1080" y="860" width="80" height="40" as="geometry" />
        </mxCell>
        <mxCell id="DFlKvA6O-jdNiN_HPqZQ-35" style="edgeStyle=orthogonalEdgeStyle;rounded=0;orthogonalLoop=1;jettySize=auto;html=1;entryX=0.135;entryY=0.986;entryDx=0;entryDy=0;entryPerimeter=0;" edge="1" parent="1" source="DFlKvA6O-jdNiN_HPqZQ-33" target="DFlKvA6O-jdNiN_HPqZQ-7">
          <mxGeometry relative="1" as="geometry" />
        </mxCell>
        <mxCell id="DFlKvA6O-jdNiN_HPqZQ-38" style="edgeStyle=orthogonalEdgeStyle;rounded=0;orthogonalLoop=1;jettySize=auto;html=1;" edge="1" parent="1" source="DFlKvA6O-jdNiN_HPqZQ-36">
          <mxGeometry relative="1" as="geometry">
            <mxPoint x="680" y="340" as="targetPoint" />
            <Array as="points">
              <mxPoint x="600" y="340" />
            </Array>
          </mxGeometry>
        </mxCell>
        <mxCell id="DFlKvA6O-jdNiN_HPqZQ-36" value="&lt;font style=&quot;font-size: 20px;&quot;&gt;Оптимізований та&lt;/font&gt;&lt;div&gt;&lt;font style=&quot;font-size: 20px;&quot;&gt;читабельний&lt;/font&gt;&lt;div&gt;&lt;font style=&quot;font-size: 20px;&quot;&gt;код&lt;/font&gt;&lt;/div&gt;&lt;/div&gt;" style="text;html=1;align=center;verticalAlign=middle;resizable=0;points=[];autosize=1;strokeColor=none;fillColor=none;" vertex="1" parent="1">
          <mxGeometry x="510" y="175" width="190" height="90" as="geometry" />
        </mxCell>
        <mxCell id="DFlKvA6O-jdNiN_HPqZQ-37" style="edgeStyle=orthogonalEdgeStyle;rounded=0;orthogonalLoop=1;jettySize=auto;html=1;entryX=-0.009;entryY=0.502;entryDx=0;entryDy=0;entryPerimeter=0;endArrow=classic;endFill=1;" edge="1" parent="1" source="DFlKvA6O-jdNiN_HPqZQ-5" target="DFlKvA6O-jdNiN_HPqZQ-36">
          <mxGeometry relative="1" as="geometry">
            <Array as="points">
              <mxPoint x="500" y="220" />
              <mxPoint x="500" y="220" />
            </Array>
          </mxGeometry>
        </mxCell>
        <mxCell id="DFlKvA6O-jdNiN_HPqZQ-41" style="edgeStyle=orthogonalEdgeStyle;rounded=0;orthogonalLoop=1;jettySize=auto;html=1;entryX=0;entryY=0.25;entryDx=0;entryDy=0;" edge="1" parent="1" source="DFlKvA6O-jdNiN_HPqZQ-39" target="DFlKvA6O-jdNiN_HPqZQ-7">
          <mxGeometry relative="1" as="geometry">
            <Array as="points">
              <mxPoint x="1060" y="420" />
            </Array>
          </mxGeometry>
        </mxCell>
        <mxCell id="DFlKvA6O-jdNiN_HPqZQ-39" value="&lt;font style=&quot;font-size: 20px;&quot;&gt;Виправлений&lt;/font&gt;&lt;div&gt;&lt;font style=&quot;font-size: 20px;&quot;&gt;код&lt;/font&gt;&lt;/div&gt;" style="text;html=1;align=center;verticalAlign=middle;resizable=0;points=[];autosize=1;strokeColor=none;fillColor=none;" vertex="1" parent="1">
          <mxGeometry x="980" y="300" width="150" height="60" as="geometry" />
        </mxCell>
        <mxCell id="DFlKvA6O-jdNiN_HPqZQ-40" style="edgeStyle=orthogonalEdgeStyle;rounded=0;orthogonalLoop=1;jettySize=auto;html=1;endArrow=classic;endFill=1;" edge="1" parent="1" source="DFlKvA6O-jdNiN_HPqZQ-6">
          <mxGeometry relative="1" as="geometry">
            <mxPoint x="980" y="330" as="targetPoint" />
            <Array as="points">
              <mxPoint x="979" y="330" />
            </Array>
          </mxGeometry>
        </mxCell>
        <mxCell id="DFlKvA6O-jdNiN_HPqZQ-43" value="&lt;font style=&quot;font-size: 20px;&quot;&gt;Готова програма&lt;/font&gt;" style="text;html=1;align=center;verticalAlign=middle;resizable=0;points=[];autosize=1;strokeColor=none;fillColor=none;" vertex="1" parent="1">
          <mxGeometry x="1360" y="400" width="180" height="40" as="geometry" />
        </mxCell>
        <mxCell id="DFlKvA6O-jdNiN_HPqZQ-44" style="edgeStyle=orthogonalEdgeStyle;rounded=0;orthogonalLoop=1;jettySize=auto;html=1;entryX=0.004;entryY=0.519;entryDx=0;entryDy=0;entryPerimeter=0;" edge="1" parent="1" source="DFlKvA6O-jdNiN_HPqZQ-7" target="DFlKvA6O-jdNiN_HPqZQ-43">
          <mxGeometry relative="1" as="geometry">
            <Array as="points">
              <mxPoint x="1300" y="421" />
              <mxPoint x="1300" y="421" />
            </Array>
          </mxGeometry>
        </mxCell>
        <mxCell id="DFlKvA6O-jdNiN_HPqZQ-45" value="&lt;font style=&quot;font-size: 20px;&quot;&gt;Документація&lt;/font&gt;" style="text;html=1;align=center;verticalAlign=middle;resizable=0;points=[];autosize=1;strokeColor=none;fillColor=none;" vertex="1" parent="1">
          <mxGeometry x="1360" y="470" width="150" height="40" as="geometry" />
        </mxCell>
        <mxCell id="DFlKvA6O-jdNiN_HPqZQ-46" style="edgeStyle=orthogonalEdgeStyle;rounded=0;orthogonalLoop=1;jettySize=auto;html=1;entryX=-0.008;entryY=0.541;entryDx=0;entryDy=0;entryPerimeter=0;" edge="1" parent="1" source="DFlKvA6O-jdNiN_HPqZQ-7" target="DFlKvA6O-jdNiN_HPqZQ-45">
          <mxGeometry relative="1" as="geometry">
            <Array as="points">
              <mxPoint x="1310" y="492" />
              <mxPoint x="1310" y="492" />
            </Array>
          </mxGeometry>
        </mxCell>
      </root>
    </mxGraphModel>
  </diagram>
</mxfile>
